# xmcd
#
# Track frame offsets:
#	150
#	12565
#	24007
#	33995
#	46635
#	59605
#	73312
#	84185
#	101805
#	116372
#	133877
#	147797
#	159955
#	176895
#	196017
#	205087
#	219985
#	234712
#
# Disc length: 3372 seconds
#
# Revision: 0
# Processed by: cddbd v1.5.2PL0 Copyright (c) Steve Scherf et al.
# Submitted via: EasyCDDAExtractor 10.0.6.1
#
DISCID=f30d2a12
DTITLE=Various Artist - Dawn Records-Breaking Through
DYEAR=1900
DGENRE=Gospel
TTITLE0=The Primitives - I'm Not Afraid To Cross That River
TTITLE1=The Melodtaires - Sold Out
TTITLE2=Singing Emmanuels - The Wedding
TTITLE3=The Stanleys - I'll Be Alright
TTITLE4=The Sorrow Family - Enter In
TTITLE5=The Rochesters - One Of These Days
TTITLE6=The Bradleys - A Touch Of Heaven
TTITLE7=Furman Boyce - Mama's Song
TTITLE8=The David Shelton Family - God Had A Plan
TTITLE9=Sunnyland - Before I Wake
TTITLE10=The Melodyaires - Just Looking For A Home
TTITLE11=Singing Emmanuels - At The Sound Of The Trumpet
TTITLE12=The Stanleys - Heart Full Of Love
TTITLE13=The Sorrow Family - The Battle Is Over
TTITLE14=The Rochesters - His Hand
TTITLE15=The Bradleys - Flag Of Freedom
TTITLE16=The David Shelton Family - A Promise
TTITLE17=Sunnyland - Rise Above The Crowd
EXTD=
EXTT0=
EXTT1=
EXTT2=
EXTT3=
EXTT4=
EXTT5=
EXTT6=
EXTT7=
EXTT8=
EXTT9=
EXTT10=
EXTT11=
EXTT12=
EXTT13=
EXTT14=
EXTT15=
EXTT16=
EXTT17=
PLAYORDER=
